<svg
        xmlns="http://www.w3.org/2000/svg"
        xmlns:xlink="http://www.w3.org/1999/xlink"
        width="121px" height="32px">
    <path fill-rule="evenodd"  fill="rgb(112, 112, 112)"
          d="M116.211,19.827 L120.999,26.003 L117.072,26.003 L112.408,19.827 L110.943,19.827 L110.943,26.003 L107.744,26.003 L107.744,8.943 L112.710,8.918 C113.798,8.914 114.574,8.952 115.107,9.023 C116.023,9.128 116.833,9.375 117.511,9.753 C118.437,10.230 119.166,10.897 119.664,11.715 C120.180,12.532 120.445,13.484 120.445,14.553 C120.445,15.878 119.984,17.056 119.080,18.058 C118.334,18.892 117.371,19.488 116.211,19.827 ZM117.034,13.371 C116.795,12.993 116.494,12.692 116.109,12.440 C115.772,12.209 115.341,12.063 114.825,11.987 C114.514,11.941 114.011,11.920 113.329,11.941 L112.834,11.966 L110.943,11.966 L110.943,17.140 L112.199,17.140 C113.056,17.173 113.657,17.173 114.068,17.140 C114.736,17.089 115.258,16.993 115.631,16.846 C116.164,16.607 116.605,16.259 116.927,15.827 C117.226,15.425 117.371,14.981 117.371,14.477 C117.371,14.096 117.260,13.731 117.034,13.371 ZM99.988,23.080 L97.888,17.400 L99.301,15.999 C99.342,15.962 99.353,15.899 99.335,15.844 C99.319,15.794 99.269,15.756 99.210,15.748 L97.221,15.492 L96.304,13.740 C96.279,13.689 96.225,13.660 96.168,13.660 C96.134,13.664 96.104,13.672 96.078,13.689 C96.059,13.702 96.042,13.723 96.031,13.748 L95.174,15.530 L93.196,15.840 C93.170,15.844 93.147,15.857 93.128,15.874 C93.102,15.890 93.083,15.915 93.072,15.945 C93.055,16.004 93.072,16.058 93.115,16.100 L94.573,17.454 L94.266,19.400 C94.257,19.458 94.283,19.513 94.330,19.546 C94.377,19.580 94.437,19.584 94.490,19.555 L96.249,18.611 L97.865,20.808 L93.298,20.808 L91.141,26.003 L87.760,26.003 L95.034,8.696 L97.442,8.696 L104.605,26.003 L101.205,26.003 L99.988,23.080 ZM83.292,25.982 L79.864,25.982 L79.864,11.815 L74.845,11.815 L74.845,8.918 L88.254,8.918 L88.254,11.815 L83.292,11.815 L83.292,25.982 ZM67.260,15.748 C67.633,15.815 67.913,15.865 68.083,15.899 C68.390,15.970 68.642,16.041 68.863,16.108 C70.113,16.461 71.153,17.048 71.948,17.853 C72.835,18.712 73.287,19.747 73.287,20.922 C73.287,22.435 72.549,23.730 71.093,24.766 C69.727,25.739 68.096,26.229 66.246,26.229 C64.353,26.229 62.737,25.755 61.457,24.816 C60.063,23.810 59.243,22.422 59.014,20.678 L58.946,20.163 L62.609,20.163 L62.675,20.544 C62.826,21.399 63.214,22.058 63.866,22.552 C64.489,23.047 65.235,23.282 66.148,23.282 C67.162,23.282 68.021,23.035 68.697,22.548 C69.362,22.083 69.680,21.542 69.680,20.896 C69.680,20.418 69.454,19.995 68.987,19.597 C68.552,19.228 67.949,18.934 67.194,18.720 C66.917,18.632 66.625,18.553 66.314,18.473 C66.148,18.448 65.832,18.389 65.418,18.301 C64.570,18.129 63.965,17.987 63.568,17.865 C62.873,17.655 62.276,17.391 61.799,17.089 C61.125,16.649 60.596,16.121 60.223,15.517 C59.880,14.901 59.709,14.251 59.709,13.576 C59.709,12.096 60.383,10.863 61.718,9.929 C62.960,9.078 64.506,8.646 66.309,8.646 C67.994,8.646 69.432,9.078 70.592,9.933 C71.833,10.859 72.588,12.151 72.837,13.786 L72.918,14.314 L69.379,14.314 L69.286,13.974 C69.060,13.165 68.669,12.549 68.122,12.151 C67.589,11.756 66.932,11.564 66.118,11.564 C65.278,11.564 64.587,11.777 64.063,12.188 C63.562,12.582 63.316,13.044 63.316,13.601 C63.316,13.807 63.316,14.436 64.480,14.985 C64.988,15.215 65.926,15.471 67.260,15.748 ZM52.965,25.982 L47.619,18.532 L45.875,20.276 L45.875,25.982 L42.306,25.982 L42.306,8.918 L45.875,8.918 L45.875,15.949 L52.577,8.918 L57.263,8.918 L50.143,15.937 L57.627,25.982 L52.965,25.982 ZM28.045,27.338 L18.223,14.017 L18.223,-0.009 L22.414,8.345 L31.790,9.685 L25.042,16.246 L28.045,27.338 ZM18.077,14.798 L18.080,14.796 L18.080,14.798 L18.077,14.798 ZM18.082,14.796 L18.082,14.798 L18.080,14.796 L18.082,14.796 ZM16.734,22.068 L8.348,26.401 L9.951,17.221 L3.167,10.720 L16.732,15.052 L29.216,32.005 L16.734,22.068 ZM12.473,7.885 L16.359,0.140 L16.359,13.146 L16.359,13.147 L3.779,9.129 L12.473,7.885 ZM17.194,31.174 C19.333,31.174 21.380,30.790 23.269,30.087 C21.147,31.085 18.771,31.644 16.262,31.644 C7.282,31.644 0.001,24.485 0.001,15.654 C0.001,15.425 0.006,15.196 0.016,14.968 C0.390,23.981 7.937,31.174 17.194,31.174 Z"/>
</svg>