<svg id="Layer_1" data-name="Layer 1" xmlns="http://www.w3.org/2000/svg" viewBox="0 0 261.11 59.33"><defs><style>.cls-1{fill:#282d36;}</style></defs><title>logo</title><path class="cls-1" d="M101.42,62.32c4.84-3.5,7.28-7.87,7.28-13A14.13,14.13,0,0,0,104.26,39,22.74,22.74,0,0,0,94,33.1c-.73-.23-1.57-.47-2.58-.71l-2.73-.51a49.66,49.66,0,0,1-9.23-2.57c-3.86-1.85-3.86-4-3.86-4.67a5.87,5.87,0,0,1,2.48-4.77,10.69,10.69,0,0,1,6.81-2.11,10.7,10.7,0,0,1,6.65,2,11,11,0,0,1,3.87,6.16l.31,1.15h11.74l-.27-1.79a19.26,19.26,0,0,0-7.45-13A23.13,23.13,0,0,0,85.55,7.92a26.17,26.17,0,0,0-15.24,4.33c-4.42,3.15-6.66,7.31-6.66,12.31a13.49,13.49,0,0,0,1.71,6.55,17,17,0,0,0,5.22,5.3A24.08,24.08,0,0,0,76.45,39c1.32.41,3.33.89,6.14,1.47,1.38.3,2.42.49,3,.58,1,.27,2,.54,2.93.84a15.72,15.72,0,0,1,5.94,2.95,5.72,5.72,0,0,1,2.3,4.39c0,2.18-1,4-3.26,5.57A14,14,0,0,1,85,57.31a11.57,11.57,0,0,1-7.57-2.47,10.38,10.38,0,0,1-4-6.77l-.22-1.29H61.12l.22,1.74a19.77,19.77,0,0,0,8.11,14c4.25,3.17,9.61,4.77,15.89,4.77A26.79,26.79,0,0,0,101.42,62.32Z" transform="translate(-5.9 -7.92)"/><polygon class="cls-1" points="124.62 58.5 136 58.5 136 10.7 152.46 10.7 152.46 0.92 107.97 0.92 107.97 10.7 124.62 10.7 124.62 58.5"/><path class="cls-1" d="M188.85,8.09h-8l-24.13,58.4h11.21L175.1,49h15.16l-5.37-7.41-5.83,3.18a.48.48,0,0,1-.53,0,.53.53,0,0,1-.22-.49l1-6.57-4.84-4.57a.52.52,0,0,1-.14-.52.46.46,0,0,1,.19-.24.39.39,0,0,1,.22-.11l6.57-1.05,2.84-6a.41.41,0,0,1,.16-.2.56.56,0,0,1,.29-.1.52.52,0,0,1,.46.27l3,5.91,6.6.86a.52.52,0,0,1,.42.33.51.51,0,0,1-.12.52l-4.69,4.73,7,19.17,4,9.86h11.28Z" transform="translate(-5.9 -7.92)"/><path class="cls-1" d="M251.13,45.65a20,20,0,0,0,9.52-6,17.36,17.36,0,0,0,4.53-11.83,17.87,17.87,0,0,0-2.59-9.58,18.08,18.08,0,0,0-7.14-6.62,21.25,21.25,0,0,0-8-2.46,60.36,60.36,0,0,0-8-.35L223,8.92V66.49h10.62V45.65h4.86L254,66.49h13ZM244,36.58a56.42,56.42,0,0,1-6.2,0h-4.17V19.12h6.28l1.64-.08a30.89,30.89,0,0,1,5,.15,10,10,0,0,1,7.33,4.67A7,7,0,0,1,255,27.6a7.48,7.48,0,0,1-1.47,4.55,10.94,10.94,0,0,1-4.3,3.44A18.12,18.12,0,0,1,244,36.58Z" transform="translate(-5.9 -7.92)"/><polygon class="cls-1" points="49.63 0.92 34.08 0.92 11.84 24.64 11.84 0.92 0 0.92 0 58.5 11.84 58.5 11.84 39.24 17.63 33.36 35.37 58.5 50.84 58.5 26 24.6 49.63 0.92"/></svg>