<?xml version="1.0" encoding="utf-8"?>
<!-- Generator: Adobe Illustrator 22.1.0, SVG Export Plug-In . SVG Version: 6.00 Build 0)  -->
<svg version="1.1" id="Layer_1" xmlns="http://www.w3.org/2000/svg" xmlns:xlink="http://www.w3.org/1999/xlink" x="0px" y="0px"
	 viewBox="0 0 128 32" style="enable-background:new 0 0 128 32;" xml:space="preserve">
<style type="text/css">
	.st0{fill:#0B9BAC;}
	.st1{fill:url(#SVGID_1_);}
	.st2{fill:url(#SVGID_2_);}
	.st3{fill:url(#SVGID_3_);}
	.st4{fill:url(#SVGID_4_);}
	.st5{fill:url(#SVGID_5_);}
	.st6{fill:url(#SVGID_6_);}
	.st7{fill:#FFFFFF;}
</style>
<g>
	<polygon class="st0" points="18.3,14.6 18.3,14.6 18.3,14.6 18.3,14.6 18.3,14.6 	"/>
	<polygon class="st0" points="18.3,14.6 18.3,14.6 18.3,14.6 	"/>
	<polygon class="st0" points="18.3,14.6 18.3,14.6 18.3,14.6 	"/>
	<polygon class="st0" points="18.3,14.6 18.3,14.6 18.3,14.6 	"/>
	<rect x="18.3" y="14.6" transform="matrix(0.8351 -0.5501 0.5501 0.8351 -5.0055 12.4456)" class="st0" width="0" height="0"/>
	<polygon class="st0" points="18.3,14.6 18.3,14.6 18.3,14.6 	"/>
	<linearGradient id="SVGID_1_" gradientUnits="userSpaceOnUse" x1="27.1229" y1="23.8443" x2="11.3093" y2="20.9891">
		<stop  offset="2.776170e-02" style="stop-color:#674B9B"/>
		<stop  offset="0.1343" style="stop-color:#6F4A9A"/>
		<stop  offset="0.3011" style="stop-color:#854898"/>
		<stop  offset="0.506" style="stop-color:#AA4494"/>
		<stop  offset="0.5734" style="stop-color:#B74292"/>
		<stop  offset="1" style="stop-color:#E50012"/>
	</linearGradient>
	<polygon class="st1" points="17,14.8 8.9,25.9 17,21.7 28.9,31.4 	"/>
	<linearGradient id="SVGID_2_" gradientUnits="userSpaceOnUse" x1="26.0143" y1="12.5127" x2="17.6033" y2="6.3446">
		<stop  offset="0.1041" style="stop-color:#52C2F0"/>
		<stop  offset="0.4939" style="stop-color:#92D1A8"/>
		<stop  offset="0.8362" style="stop-color:#C5DC6E"/>
		<stop  offset="1" style="stop-color:#D9E158"/>
	</linearGradient>
	<polygon class="st2" points="22.4,8.3 18.4,0.1 18.4,13.8 31.4,9.6 	"/>
	<linearGradient id="SVGID_3_" gradientUnits="userSpaceOnUse" x1="24.9028" y1="10.2096" x2="24.9028" y2="25.4962">
		<stop  offset="0" style="stop-color:#52C2F0"/>
		<stop  offset="0.5" style="stop-color:#5A6BB1"/>
		<stop  offset="1" style="stop-color:#7B559F"/>
	</linearGradient>
	<polygon class="st3" points="31.4,9.6 18.4,13.8 27.8,26.8 24.9,16 	"/>
	<linearGradient id="SVGID_4_" gradientUnits="userSpaceOnUse" x1="7.5797" y1="19.6513" x2="10.8323" y2="11.8005">
		<stop  offset="0" style="stop-color:#DE3D8E"/>
		<stop  offset="0.371" style="stop-color:#E52380"/>
		<stop  offset="0.7343" style="stop-color:#F07637"/>
		<stop  offset="1" style="stop-color:#F8B600"/>
	</linearGradient>
	<polygon class="st4" points="3.9,10.6 10.5,16.9 8.9,25.9 17,14.8 	"/>
	<linearGradient id="SVGID_5_" gradientUnits="userSpaceOnUse" x1="5.957" y1="15.6875" x2="17.8932" y2="3.5647">
		<stop  offset="0" style="stop-color:#E95513"/>
		<stop  offset="0.3407" style="stop-color:#F5A823"/>
		<stop  offset="0.5" style="stop-color:#FBD12B"/>
		<stop  offset="1" style="stop-color:#8DC21F"/>
	</linearGradient>
	<polygon class="st5" points="12.9,7.8 4.5,9 16.6,13 16.6,13 16.6,13 16.6,0.3 	"/>
	<linearGradient id="SVGID_6_" gradientUnits="userSpaceOnUse" x1="20.2344" y1="30.3658" x2="9.097578e-02" y2="19.2149">
		<stop  offset="2.776170e-02" style="stop-color:#674B9B"/>
		<stop  offset="9.451672e-02" style="stop-color:#774999"/>
		<stop  offset="0.2621" style="stop-color:#9A4595"/>
		<stop  offset="0.3997" style="stop-color:#AF4393"/>
		<stop  offset="0.4892" style="stop-color:#B74292"/>
		<stop  offset="1" style="stop-color:#E50012"/>
	</linearGradient>
	<path class="st6" d="M17.4,30.6c2.1,0,4-0.4,5.8-1.1c-2,1-4.3,1.5-6.7,1.5C7.9,31,0.9,24,0.9,15.4c0-0.2,0-0.4,0-0.7
		C1.3,23.5,8.5,30.6,17.4,30.6z"/>
</g>
<g>
	<path class="st7" d="M69.9,14.4c-0.2-0.1-0.5-0.1-0.8-0.2c-0.2,0-0.5-0.1-0.8-0.2c-1.3-0.3-2.3-0.5-2.8-0.8
		c-1.2-0.6-1.2-1.2-1.2-1.4c0-0.6,0.2-1,0.8-1.4c0.5-0.4,1.2-0.6,2.1-0.6c0.8,0,1.5,0.2,2,0.6c0.6,0.4,0.9,1,1.2,1.9l0.1,0.3H74
		L73.9,12c-0.3-1.7-1-3-2.3-3.9c-1.2-0.9-2.6-1.3-4.3-1.3c-1.8,0-3.4,0.4-4.6,1.3c-1.3,1-2,2.2-2,3.7c0,0.7,0.2,1.4,0.5,2
		c0.4,0.6,0.9,1.2,1.6,1.6c0.5,0.3,1.1,0.6,1.8,0.8c0.4,0.1,1,0.3,1.9,0.4c0.4,0.1,0.7,0.2,0.9,0.2c0.3,0.1,0.6,0.2,0.9,0.3
		c0.8,0.2,1.4,0.5,1.8,0.9c0.5,0.4,0.7,0.8,0.7,1.3c0,0.7-0.3,1.2-1,1.7c-0.7,0.5-1.5,0.8-2.6,0.8c-0.9,0-1.7-0.2-2.3-0.7
		c-0.7-0.5-1-1.2-1.2-2.1l-0.1-0.4h-3.7l0.1,0.5c0.2,1.8,1.1,3.2,2.5,4.2c1.3,1,2.9,1.4,4.8,1.4c1.9,0,3.5-0.5,4.9-1.5
		c1.5-1.1,2.2-2.4,2.2-3.9c0-1.2-0.5-2.3-1.3-3.1C72.2,15.3,71.1,14.7,69.9,14.4z"/>
	<polygon class="st7" points="89.4,7 75.9,7 75.9,10 81,10 81,24.5 84.4,24.5 84.4,10 89.4,10 	"/>
	<path class="st7" d="M96.2,6.8l-7.3,17.7h3.4l2.2-5.3h4.6l-1.6-2.2l-1.8,1c-0.1,0-0.1,0-0.2,0c0,0-0.1-0.1-0.1-0.2l0.3-2l-1.5-1.4
		c0,0-0.1-0.1,0-0.2c0,0,0-0.1,0.1-0.1c0,0,0,0,0.1,0l2-0.3l0.9-1.8c0,0,0,0,0-0.1c0,0,0.1,0,0.1,0c0.1,0,0.1,0,0.1,0.1l0.9,1.8
		l2,0.3c0.1,0,0.1,0,0.1,0.1c0,0.1,0,0.1,0,0.2l-1.4,1.4l2.1,5.8l1.2,3h3.4L98.7,6.8H96.2z"/>
	<path class="st7" d="M117.6,18.2c1.2-0.3,2.1-1,2.9-1.8c0.9-1,1.4-2.2,1.4-3.6c0-1.1-0.3-2.1-0.8-2.9c-0.5-0.8-1.2-1.5-2.2-2
		c-0.7-0.4-1.5-0.6-2.4-0.7C115.9,7.1,115.1,7,114,7l-5,0v17.5h3.2v-6.3h1.5l4.7,6.3h4L117.6,18.2z M115.4,15.4c-0.4,0-1,0-1.9,0
		h-1.3v-5.3h1.9l0.5,0c0.7,0,1.2,0,1.5,0c0.5,0.1,1,0.2,1.3,0.5c0.4,0.3,0.7,0.6,0.9,1c0.2,0.4,0.3,0.7,0.3,1.1c0,0.5-0.1,1-0.4,1.4
		c-0.3,0.4-0.8,0.8-1.3,1C116.6,15.3,116.1,15.4,115.4,15.4z"/>
	<g>
		<path class="st7" d="M43.2,7h3.6v7.2L53.5,7h4.7L51,14.2l7.5,10.3h-4.7l-5.4-7.6l-1.8,1.8v5.8h-3.6V7z"/>
	</g>
</g>
</svg>
