<svg id="레이어_1" data-name="레이어 1" xmlns="http://www.w3.org/2000/svg" xmlns:xlink="http://www.w3.org/1999/xlink" viewBox="0 0 79.4 102.83"><defs><style>.cls-1{fill:#0b9bac;}.cls-2{fill:url(#linear-gradient);}.cls-3{fill:url(#linear-gradient-2);}.cls-4{fill:url(#linear-gradient-3);}.cls-5{fill:url(#linear-gradient-4);}.cls-6{fill:url(#linear-gradient-5);}.cls-7{fill:url(#linear-gradient-6);}.cls-8{fill:url(#linear-gradient-7);}.cls-9{fill:url(#linear-gradient-8);}.cls-10{fill:url(#linear-gradient-9);}.cls-11{fill:url(#linear-gradient-10);}.cls-12{fill:url(#linear-gradient-11);}</style><linearGradient id="linear-gradient" x1="68.24" y1="61.75" x2="27.07" y2="54.32" gradientUnits="userSpaceOnUse"><stop offset="0.03" stop-color="#674b9b"/><stop offset="0.13" stop-color="#6f4a9a"/><stop offset="0.3" stop-color="#854898"/><stop offset="0.51" stop-color="#aa4494"/><stop offset="0.57" stop-color="#b74292"/><stop offset="1" stop-color="#e50012"/></linearGradient><linearGradient id="linear-gradient-2" x1="65.35" y1="32.25" x2="43.46" y2="16.19" gradientUnits="userSpaceOnUse"><stop offset="0.1" stop-color="#52c2f0"/><stop offset="0.49" stop-color="#92d1a8"/><stop offset="0.84" stop-color="#c5dc6e"/><stop offset="1" stop-color="#d9e158"/></linearGradient><linearGradient id="linear-gradient-3" x1="62.46" y1="26.25" x2="62.46" y2="66.05" gradientUnits="userSpaceOnUse"><stop offset="0" stop-color="#52c2f0"/><stop offset="0.5" stop-color="#5a6bb1"/><stop offset="1" stop-color="#7b559f"/></linearGradient><linearGradient id="linear-gradient-4" x1="17.36" y1="50.84" x2="25.83" y2="30.4" gradientUnits="userSpaceOnUse"><stop offset="0" stop-color="#de3d8e"/><stop offset="0.37" stop-color="#e52380"/><stop offset="0.73" stop-color="#f07637"/><stop offset="1" stop-color="#f8b600"/></linearGradient><linearGradient id="linear-gradient-5" x1="13.14" y1="40.51" x2="44.21" y2="8.95" gradientUnits="userSpaceOnUse"><stop offset="0" stop-color="#e95513"/><stop offset="0.34" stop-color="#f5a823"/><stop offset="0.5" stop-color="#fbd12b"/><stop offset="1" stop-color="#8dc21f"/></linearGradient><linearGradient id="linear-gradient-6" x1="51.41" y1="79.22" x2="-1.03" y2="50.19" gradientUnits="userSpaceOnUse"><stop offset="0.03" stop-color="#674b9b"/><stop offset="0.09" stop-color="#774999"/><stop offset="0.26" stop-color="#9a4595"/><stop offset="0.4" stop-color="#af4393"/><stop offset="0.49" stop-color="#b74292"/><stop offset="1" stop-color="#e50012"/></linearGradient><linearGradient id="linear-gradient-7" x1="18.85" y1="96.18" x2="70.05" y2="100.44" gradientUnits="userSpaceOnUse"><stop offset="0" stop-color="#709ad1"/><stop offset="0.11" stop-color="#6e95ce"/><stop offset="0.23" stop-color="#6888c5"/><stop offset="0.35" stop-color="#5f72b6"/><stop offset="0.42" stop-color="#5861aa"/><stop offset="0.64" stop-color="#6d57a1"/><stop offset="0.68" stop-color="#7e559f"/><stop offset="0.76" stop-color="#9a539c"/><stop offset="0.84" stop-color="#ae519a"/><stop offset="0.92" stop-color="#ba5098"/><stop offset="1" stop-color="#be5098"/></linearGradient><linearGradient id="linear-gradient-8" x1="17.82" y1="94.73" x2="69.02" y2="98.99" xlink:href="#linear-gradient-7"/><linearGradient id="linear-gradient-9" x1="18.97" y1="94.69" x2="70.17" y2="98.95" xlink:href="#linear-gradient-7"/><linearGradient id="linear-gradient-10" x1="19.06" y1="93.77" x2="70.25" y2="98.04" xlink:href="#linear-gradient-7"/><linearGradient id="linear-gradient-11" x1="18.31" y1="97.04" x2="69.52" y2="101.31" xlink:href="#linear-gradient-7"/></defs><title>logo</title><polygon class="cls-1" points="45.16 37.61 45.16 37.61 45.16 37.61 45.16 37.61 45.16 37.61 45.16 37.61"/><polygon class="cls-1" points="45.16 37.61 45.16 37.61 45.16 37.61 45.16 37.61"/><polygon class="cls-1" points="45.16 37.61 45.16 37.61 45.16 37.61 45.16 37.61"/><polygon class="cls-1" points="45.16 37.61 45.16 37.61 45.16 37.61 45.16 37.61"/><rect class="cls-1" x="46.26" y="38.1" transform="translate(-9.73 13.55) rotate(-15.8)"/><polygon class="cls-1" points="45.16 37.6 45.16 37.61 45.16 37.61 45.16 37.6"/><polygon class="cls-2" points="41.79 38.26 20.85 67.09 41.8 56.08 72.97 81.32 41.79 38.26"/><polygon class="cls-3" points="55.98 21.22 45.52 0 45.52 35.63 79.4 24.63 55.98 21.22"/><polygon class="cls-4" points="79.4 24.63 45.52 35.63 70.05 69.47 62.55 41.29 79.4 24.63"/><polygon class="cls-5" points="7.91 27.25 24.85 43.77 20.85 67.09 41.79 38.26 7.91 27.25"/><polygon class="cls-6" points="31.15 20.05 9.44 23.21 40.86 33.42 40.86 33.42 40.86 33.41 40.86 0.38 31.15 20.05"/><path class="cls-7" d="M44.05,79.7a42.69,42.69,0,0,0,15.18-2.76A40.63,40.63,0,0,1,1.11,40.28c0-.58,0-1.16,0-1.74A42.93,42.93,0,0,0,44.05,79.7Z" transform="translate(-1.11 -0.49)"/><path class="cls-8" d="M35.81,96.56l-.51-.14-.54-.1a10.83,10.83,0,0,1-1.83-.51c-.76-.37-.76-.79-.76-.92a1.17,1.17,0,0,1,.49-1A2.13,2.13,0,0,1,34,93.53a2.06,2.06,0,0,1,1.31.39,2.15,2.15,0,0,1,.77,1.21l.06.23h2.32l0-.35A3.79,3.79,0,0,0,37,92.44a4.53,4.53,0,0,0-2.82-.86,5.16,5.16,0,0,0-3,.85,2.89,2.89,0,0,0-1.32,2.44,2.66,2.66,0,0,0,.34,1.3,3.42,3.42,0,0,0,1,1,5,5,0,0,0,1.16.51c.26.08.66.18,1.22.29l.59.12.58.16a3.13,3.13,0,0,1,1.17.59,1.14,1.14,0,0,1,.46.87,1.31,1.31,0,0,1-.65,1.1,2.73,2.73,0,0,1-1.67.49,2.29,2.29,0,0,1-1.5-.49,2,2,0,0,1-.78-1.34l-.05-.25H29.3l0,.34A3.92,3.92,0,0,0,31,102.38a5.18,5.18,0,0,0,3.14.94,5.32,5.32,0,0,0,3.19-1,3.1,3.1,0,0,0,1.44-2.57,2.83,2.83,0,0,0-.88-2A4.62,4.62,0,0,0,35.81,96.56Z" transform="translate(-1.11 -0.49)"/><polygon class="cls-9" points="47.44 91.27 38.63 91.27 38.63 93.2 41.93 93.2 41.93 102.66 44.18 102.66 44.18 93.2 47.44 93.2 47.44 91.27"/><path class="cls-10" d="M53,91.61l-4.78,11.56h2.22l1.42-3.47h3L53.8,98.23l-1.16.63a.09.09,0,0,1-.1,0,.14.14,0,0,1,0-.1l.21-1.3-1-.91a.09.09,0,0,1,0-.1.1.1,0,0,1,0,0,.05.05,0,0,1,0,0l1.3-.21L53.65,95l0,0h.06s.08,0,.09,0l.6,1.17,1.31.17a.09.09,0,0,1,.08.06.11.11,0,0,1,0,.11l-.93.93,1.38,3.8.8,2h2.23l-4.7-11.56Z" transform="translate(-1.11 -0.49)"/><path class="cls-11" d="M66.91,99a3.89,3.89,0,0,0,1.88-1.18,3.45,3.45,0,0,0,.9-2.34,3.5,3.5,0,0,0-.52-1.89,3.38,3.38,0,0,0-1.41-1.31,4.07,4.07,0,0,0-1.58-.49,12.13,12.13,0,0,0-1.57-.07l-3.27,0v11.39h2.11V99h1l3.06,4.13h2.58ZM65.5,97.25a12.22,12.22,0,0,1-1.23,0h-.82V93.79H65a5.54,5.54,0,0,1,1,0,2,2,0,0,1,.84.3,2.12,2.12,0,0,1,.61.62,1.47,1.47,0,0,1,.22.74,1.51,1.51,0,0,1-.29.9,2.23,2.23,0,0,1-.86.68A3.32,3.32,0,0,1,65.5,97.25Z" transform="translate(-1.11 -0.49)"/><path class="cls-12" d="M18.37,91.76h2.35v4.69l4.4-4.69h3.07l-4.67,4.69,4.91,6.7H25.37l-3.51-5-1.14,1.16v3.81H18.37Z" transform="translate(-1.11 -0.49)"/></svg>